#!OML:ASF F:\VICON\USERDATA\INSTALL\rory3\rory3.ASF
:FULLY-SPECIFIED
:DEGREES
1664
root -0.938021 16.4632 2.35828 -197.75 -108.348 194.644
lowerback 9.53883 0.308997 -4.60001
upperback -0.292639 -0.0292612 1.5256
thorax -5.66782 0.13833 4.20365
lowerneck -10.0009 -2.73577 -14.0515
upperneck -19.2038 -2.13919 11.1783
head -3.81006 -0.883861 5.92319
rclavicle -1.47535e-015 1.59028e-015
rhumerus 79.17 -30.8897 -33.2314
rradius 42.2325
rwrist -4.56915
rhand -47.3876 -2.98239
rfingers 7.12502
rthumb -20.0798 -31.9648
lclavicle -1.47535e-015 1.59028e-015
lhumerus 71.2158 31.4821 26.1892
lradius 41.5724
lwrist 12.0973
lhand -33.174 26.5102
lfingers 7.12502
lthumb -6.38224 56.3941
rfemur -14.5013 5.18012 4.90678
rtibia 60.8715
rfoot -24.2723 4.72246
rtoes -17.2513
lfemur -11.9435 -0.301932 -15.8694
ltibia 47.1202
lfoot -25.1441 2.44179
ltoes -27.1452
1665
root -0.945402 16.509 2.41922 -198.364 -108.329 195.404
lowerback 9.23925 0.255888 -4.91169
upperback -0.332459 -0.119757 1.53354
thorax -5.53118 0.100305 4.39929
lowerneck -10.2781 -2.8083 -14.2065
upperneck -19.1112 -2.17905 11.3591
head -3.72672 -0.897787 6.00198
rclavicle -3.77753e-014 -5.56597e-015
rhumerus 78.8257 -30.5863 -33.1018
rradius 41.8908
rwrist -4.5607
rhand -46.7059 -2.62136
rfingers 7.12502
rthumb -19.4245 -31.6711
lclavicle -3.77753e-014 -5.56597e-015
lhumerus 70.125 31.0547 25.0805
lradius 41.5926
lwrist 12.1847
lhand -32.6077 26.2479
lfingers 7.12502
lthumb -5.8355 56.1476
rfemur -14.9547 5.17581 4.40701
rtibia 61.2082
rfoot -22.764 4.26917
rtoes -18.9188
lfemur -11.7606 -0.352746 -16.4379
ltibia 46.7052
lfoot -24.6782 2.67786
ltoes -26.625
1666
root -0.951257 16.5624 2.4797 -198.454 -108.225 195.481
lowerback 9.07332 0.249756 -4.88632
upperback -0.319332 -0.116687 1.53487
thorax -5.42384 0.0977686 4.38397
lowerneck -10.5577 -2.87915 -14.0543
upperneck -19.0774 -2.27613 11.2149
head -3.66787 -0.947341 5.92281
rclavicle -2.7277e-014 9.54166e-015
rhumerus 78.3753 -30.4766 -32.929
rradius 41.5183
rwrist -4.17825
rhand -46.2135 -2.41364
rfingers 7.12502
rthumb -18.951 -31.5104
lclavicle -2.7277e-014 9.54166e-015
lhumerus 69.2622 30.5816 24.1239
lradius 41.7406
lwrist 12.1196
lhand -32.1602 25.8421
lfingers 7.12502
lthumb -5.40343 55.7532
rfemur -15.2726 5.30029 4.14989
rtibia 61.5313
rfoot -21.0782 4.27715
rtoes -17.6684
lfemur -11.4295 -0.456261 -16.7285
ltibia 46.2787
lfoot -24.224 2.624
ltoes -25.4892
1667
root -0.954245 16.6204 2.53772 -198.643 -108.04 195.592
lowerback 9.0427 0.202373 -4.90253
upperback -0.292917 -0.17765 1.57928
thorax -5.37174 0.0665275 4.44784
lowerneck -10.734 -2.83311 -13.8968
upperneck -19.2178 -2.24086 11.0009
head -3.6981 -0.933035 5.8296
rclavicle -1.70644e-014 -1.27222e-014
rhumerus 78.1366 -30.3443 -32.804
rradius 41.1493
rwrist -3.60976
rhand -45.7909 -2.25995
rfingers 7.12502
rthumb -18.5445 -31.396
lclavicle -1.70644e-014 -1.27222e-014
lhumerus 68.9636 30.0742 23.7462
lradius 41.4248
lwrist 11.2018
lhand -31.766 25.5295
lfingers 7.12502
lthumb -5.02274 55.45
rfemur -15.5771 5.54282 3.87816
rtibia 61.8731
rfoot -19.2996 4.48982
rtoes -14.4288
lfemur -11.0051 -0.403682 -16.9798
ltibia 45.7998
lfoot -23.6927 2.5699
ltoes -24.6135
1668
root -0.95715 16.6793 2.59085 -198.827 -107.884 195.879
lowerback 8.84826 0.121367 -4.97935
upperback -0.310235 -0.283099 1.59888
thorax -5.26794 0.0143302 4.52405
lowerneck -10.8883 -2.77935 -13.9093
upperneck -19.4131 -2.16061 11.0061
head -3.74494 -0.894715 5.84
rclavicle -2.55625e-014 1.59028e-014
rhumerus 77.8742 -30.2113 -32.7091
rradius 40.9261
rwrist -2.98834
rhand -45.5166 -2.37975
rfingers 7.12502
rthumb -18.2807 -31.5407
lclavicle -2.55625e-014 1.59028e-014
lhumerus 68.5928 29.6249 23.2683
lradius 41.1555
lwrist 10.2124
lhand -31.4282 25.4623
lfingers 7.12502
lthumb -4.69662 55.3902
rfemur -16.1195 5.67912 3.54551
rtibia 62.2014
rfoot -17.4284 4.55511
rtoes -11.3253
lfemur -10.7807 -0.372236 -17.2391
ltibia 45.275
lfoot -23.1296 2.46007
ltoes -24.3799
1669
root -0.961288 16.7396 2.64079 -199.316 -107.751 196.409
lowerback 8.77384 0.0895983 -5.14927
upperback -0.310105 -0.33968 1.59169
thorax -5.21882 -0.0105163 4.61951
lowerneck -11.2121 -2.84947 -13.894
upperneck -19.4784 -2.23086 11.0065
head -3.70785 -0.929392 5.83496
rclavicle -6.54126e-015 -1.51076e-014
rhumerus 77.6014 -30.148 -32.5976
rradius 40.7229
rwrist -2.40564
rhand -45.4819 -2.17276
rfingers 7.12502
rthumb -18.2473 -31.3369
lclavicle -6.54126e-015 -1.51076e-014
lhumerus 67.8109 29.3307 22.3413
lradius 41.3166
lwrist 9.90225
lhand -31.4307 25.4039
lfingers 7.12502
lthumb -4.69903 55.3318
rfemur -16.6233 5.62387 3.19864
rtibia 62.4878
rfoot -15.6018 4.10946
rtoes -10.0265
lfemur -10.445 -0.372476 -17.5721
ltibia 44.6871
lfoot -22.4478 2.42027
ltoes -24.4912
1670
root -0.964044 16.8038 2.68847 -198.799 -107.534 195.78
lowerback 8.8418 0.0377698 -4.96226
upperback -0.278354 -0.387671 1.69299
thorax -5.21817 -0.0389868 4.62715
lowerneck -11.5185 -2.96191 -14.103
upperneck -19.5787 -2.31353 11.245
head -3.67236 -0.964592 5.94713
rclavicle 2.59662e-015 1.98785e-014
rhumerus 77.3769 -30.0993 -32.5138
rradius 40.5881
rwrist -1.73759
rhand -45.5464 -1.95391
rfingers 7.12502
rthumb -18.3094 -31.1122
lclavicle 2.59662e-015 1.98785e-014
lhumerus 66.8038 29.1258 21.3483
lradius 41.8131
lwrist 9.91871
lhand -31.1549 25.4754
lfingers 7.12502
lthumb -4.43273 55.409
rfemur -16.9447 5.60126 3.3715
rtibia 62.685
rfoot -13.9607 3.21307
rtoes -9.03739
lfemur -9.96429 -0.160359 -17.5186
ltibia 44.0692
lfoot -21.7412 2.63025
ltoes -26.1296
1671
root -0.962287 16.8613 2.73383 -198.641 -107.388 195.549
lowerback 8.92175 -0.0435868 -4.85714
upperback -0.22874 -0.486312 1.74732
thorax -5.19966 -0.091892 4.63835
lowerneck -11.8623 -3.01024 -14.1705
upperneck -19.66 -2.35868 11.1492
head -3.64475 -0.978049 5.9255
rclavicle 6.35925e-014 1.59028e-014
rhumerus 77.3987 -30.0771 -32.6526
rradius 40.4413
rwrist -1.19528
rhand -45.7344 -1.88672
rfingers 7.12502
rthumb -18.4902 -31.0279
lclavicle 6.35925e-014 1.59028e-014
lhumerus 66.5346 28.877 21.1745
lradius 41.6762
lwrist 9.52537
lhand -31.0288 25.173
lfingers 7.12502
lthumb -4.31096 55.1091
rfemur -17.2794 5.56474 3.36217
rtibia 62.8442
rfoot -12.4525 2.59356
rtoes -6.36131
lfemur -9.49266 0.173188 -17.6159
ltibia 43.3957
lfoot -20.9537 3.08511
ltoes -28.9499
1672
root -0.965538 16.9235 2.77954 -198.559 -107.266 195.467
lowerback 8.90569 -0.0946418 -4.84532
upperback -0.189294 -0.549896 1.79677
thorax -5.14132 -0.125877 4.69144
lowerneck -12.0473 -2.98378 -14.193
upperneck -19.8855 -2.32344 11.0595
head -3.69548 -0.957565 5.90682
rclavicle 6.78042e-015 1.35174e-014
rhumerus 77.4211 -30.1008 -32.8119
rradius 40.3801
rwrist -0.943669
rhand -45.7766 -2.05451
rfingers 7.12502
rthumb -18.5308 -31.1919
lclavicle 6.78042e-015 1.35174e-014
lhumerus 67.329 28.3857 21.9159
lradius 40.9267
lwrist 8.55837
lhand -31.0935 25.0269
lfingers 7.12502
lthumb -4.37338 54.9618
rfemur -17.6068 5.41014 3.31738
rtibia 62.9009
rfoot -11.3224 2.0934
rtoes -4.16863
lfemur -9.14338 0.216768 -17.7029
ltibia 42.7362
lfoot -20.3436 3.01653
ltoes -30.743
1673
root -0.970251 16.9915 2.82297 -198.483 -107.169 195.431
lowerback 8.8991 -0.0795614 -4.85815
upperback -0.190026 -0.53067 1.79964
thorax -5.14052 -0.115995 4.69919
lowerneck -12.2366 -3.12178 -14.1666
upperneck -20.1281 -2.49635 11.0974
head -3.71958 -1.0475 5.917
rclavicle -3.0765e-014 9.54166e-015
rhumerus 76.9941 -30.2469 -32.579
rradius 40.5863
rwrist -1.16911
rhand -45.7813 -2.47722
rfingers 7.12502
rthumb -18.5353 -31.6142
lclavicle -3.0765e-014 9.54166e-015
lhumerus 66.5431 28.2875 20.8466
lradius 41.4663
lwrist 9.72144
lhand -31.2228 25.068
lfingers 7.12502
lthumb -4.49827 55.0002
rfemur -17.9132 5.25476 3.34782
rtibia 62.8717
rfoot -10.8905 1.5517
rtoes -3.96468
lfemur -8.88254 0.0214691 -17.7564
ltibia 42.1006
lfoot -19.697 2.33422
ltoes -29.9024
1674
root -0.972696 17.0563 2.86386 -197.807 -107.088 194.722
lowerback 8.90191 -0.106373 -4.67633
upperback -0.11804 -0.545395 1.84465
thorax -5.06544 -0.13172 4.64427
lowerneck -12.675 -3.30461 -14.0452
upperneck -20.1789 -2.71851 11.069
head -3.64515 -1.16215 5.87787
rclavicle -4.20057e-014 -1.90833e-014
rhumerus 76.5673 -30.5312 -32.2663
rradius 40.8762
rwrist -1.61467
rhand -45.7289 -2.4565
rfingers 7.12502
rthumb -18.4849 -31.5982
lclavicle -4.20057e-014 -1.90833e-014
lhumerus 66.5538 28.121 20.7171
lradius 41.5214
lwrist 10.1863
lhand -31.2177 25.0996
lfingers 7.12502
lthumb -4.49331 55.032
rfemur -18.0847 4.94269 3.64414
rtibia 62.7281
rfoot -10.904 1.3752
rtoes -3.76817
lfemur -8.6175 -0.179108 -17.6005
ltibia 41.56
lfoot -19.0056 1.65546
ltoes -28.3177
1675
root -0.976505 17.1165 2.90159 -197.033 -107.115 194.015
lowerback 8.85167 -0.175207 -4.48225
upperback -0.111002 -0.612222 1.90266
thorax -5.023 -0.170581 4.60267
lowerneck -13.1345 -3.41056 -13.8563
upperneck -20.0524 -2.89015 10.6181
head -3.53958 -1.23987 5.68388
rclavicle 1.39615e-014 -4.85035e-014
rhumerus 76.2942 -30.7155 -32.1511
rradius 41.1592
rwrist -1.95029
rhand -45.6709 -2.14857
rfingers 7.12502
rthumb -18.4291 -31.2956
lclavicle 1.39615e-014 -4.85035e-014
lhumerus 66.5147 27.8864 20.8192
lradius 41.9082
lwrist 10.692
lhand -31.1066 25.2565
lfingers 7.12502
lthumb -4.38605 55.1911
rfemur -18.297 4.46432 3.90478
rtibia 62.4844
rfoot -11.1139 1.90113
rtoes -2.88011
lfemur -8.55478 -0.286831 -17.4557
ltibia 41.1505
lfoot -18.3831 0.989313
ltoes -27.3015
1676
root -0.982872 17.1722 2.93712 -196.247 -107.072 193.319
lowerback 8.90896 -0.245815 -4.42515
upperback -0.171278 -0.694558 2.08552
thorax -5.10803 -0.206924 4.77623
lowerneck -14.0219 -4.65767 -16.2204
upperneck -19.6698 -3.85071 13.8312
head -2.98404 -1.64829 7.07928
rclavicle -1.97232e-014 5.56597e-015
rhumerus 76.2239 -30.7415 -31.962
rradius 41.4291
rwrist -2.31986
rhand -45.7009 -2.33374
rfingers 7.12502
rthumb -18.458 -31.478
lclavicle -1.97232e-014 5.56597e-015
lhumerus 65.9338 27.7006 20.8881
lradius 42.8689
lwrist 11.0125
lhand -30.6995 25.5877
lfingers 7.12502
lthumb -3.993 55.53
rfemur -18.5624 3.95994 4.27576
rtibia 62.1432
rfoot -11.3031 2.65694
rtoes -3.7543
lfemur -8.57288 -0.359462 -17.2825
ltibia 40.9156
lfoot -17.7651 0.338429
ltoes -25.8986
1677
root -0.988548 17.2222 2.96909 -195.513 -107.06 192.713
lowerback 8.97706 -0.320815 -4.37085
upperback -0.245031 -0.788629 2.15116
thorax -5.21303 -0.249307 4.82965
lowerneck -13.8461 -3.64297 -14.3736
upperneck -20.066 -3.0613 10.847
head -3.40832 -1.2938 5.83283
rclavicle 2.58855e-014 1.74931e-014
rhumerus 76.1397 -30.8342 -31.9898
rradius 41.6453
rwrist -2.48397
rhand -45.5648 -2.17136
rfingers 7.12502
rthumb -18.327 -31.328
lclavicle 2.58855e-014 1.74931e-014
lhumerus 65.9776 27.5353 21.3166
lradius 43.2696
lwrist 10.7725
lhand -29.7821 25.6938
lfingers 7.12502
lthumb -3.10707 55.6509
rfemur -18.862 3.49546 4.66508
rtibia 61.7223
rfoot -11.3921 3.53625
rtoes -6.54725
lfemur -8.74009 -0.408349 -17.1498
ltibia 40.8756
lfoot -17.2978 -0.198006
ltoes -24.3286
1678
root -0.990117 17.2578 2.99585 -194.997 -107.172 192.417
lowerback 8.97078 -0.347038 -4.41592
upperback -0.309374 -0.82628 2.18699
thorax -5.27194 -0.262876 4.89922
lowerneck -14.6966 -4.29329 -15.203
upperneck -19.735 -3.6076 12.0246
head -3.05169 -1.53338 6.31409
rclavicle -1.54182e-014 -1.43125e-014
rhumerus 75.6855 -31.1419 -31.6633
rradius 42.0652
rwrist -2.5493
rhand -45.4199 -1.94623
rfingers 7.12502
rthumb -18.1877 -31.1159
lclavicle -1.54182e-014 -1.43125e-014
lhumerus 66.5634 27.3363 22.0639
lradius 43.2556
lwrist 10.855
lhand -29.546 25.562
lfingers 7.12502
lthumb -2.87906 55.5223
rfemur -19.2255 2.70588 5.04685
rtibia 61.2687
rfoot -11.435 4.09671
rtoes -15.2832
lfemur -9.10355 -0.48032 -17.1455
ltibia 40.923
lfoot -16.7679 -0.556568
ltoes -23.65
